<svg width="30" height="30" viewBox="0 0 30 30" fill="none" xmlns="http://www.w3.org/2000/svg">
<circle cx="15" cy="15" r="14.5" fill="#22B130" stroke="#22B130"/>
<path fill-rule="evenodd" clip-rule="evenodd" d="M20.7488 11.2462C20.9096 11.4039 21 11.6178 21 11.8408C21 12.0638 20.9096 12.2776 20.7488 12.4353L13.8855 19.163C13.7247 19.3207 13.5065 19.4092 13.279 19.4092C13.0515 19.4092 12.8333 19.3207 12.6725 19.163L9.24083 15.7992C9.08455 15.6406 8.99808 15.4281 9.00003 15.2077C9.00199 14.9872 9.09221 14.7762 9.25128 14.6203C9.41034 14.4644 9.62551 14.3759 9.85045 14.374C10.0754 14.3721 10.2921 14.4569 10.4539 14.6101L13.279 17.3793L19.5357 11.2462C19.6966 11.0886 19.9148 11 20.1423 11C20.3698 11 20.5879 11.0886 20.7488 11.2462Z" fill="white"/>
</svg>
